# xmcd CD database file
#
# Track frame offsets:
#	150
#	19903
#	32990
#	43825
#	55468
#	65154
#	76892
#	89311
#	97241
#	111879
#	125770
#	135873
#	144380
#	156567
#	169647
#	183432
#	196230
#
# Disc length: 2770 seconds
#
# Revision: 0
# Processed by: cddbd v1.5.1PL2 Copyright (c) Steve Scherf et al.
# Submitted via: CDex 1.51
#
DISCID=f70ad011
DTITLE=Various Artist - Baby Loves Jazz
DYEAR=2005
DGENRE=Jazz
TTITLE0=Yes Sir, That's My Baby
TTITLE1=Zip-a-Dee-Doo-Dah
TTITLE2=Twinkle, Twinkle Little Star
TTITLE3=When You With Upon a Star
TTITLE4=Jeepers Creepers
TTITLE5=Three Blind Mice
TTITLE6=My Favorite Things
TTITLE7=Pop! Goes the Weasel
TTITLE8=The Hokey Pokey
TTITLE9=Linus and Lucy
TTITLE10=Bibbidi-Boddidi-Boo
TTITLE11=The Farmer in the Dell
TTITLE12=Look for the Silver Lining
TTITLE13=Pick Yourself Up
TTITLE14=Someday My Prince Will Come
TTITLE15=Hit the Road to Dreamland
TTITLE16=This Little Piggie
EXTD=YEAR: 2005
EXTT0=
EXTT1=
EXTT2=
EXTT3=
EXTT4=
EXTT5=
EXTT6=
EXTT7=
EXTT8=
EXTT9=
EXTT10=
EXTT11=
EXTT12=
EXTT13=
EXTT14=
EXTT15=
EXTT16=
PLAYORDER=
